<?xml version="1.0" standalone="no"?>
<!DOCTYPE svg PUBLIC "-//W3C//DTD SVG 20010904//EN"
 "http://www.w3.org/TR/2001/REC-SVG-20010904/DTD/svg10.dtd">
<svg version="1.0" xmlns="http://www.w3.org/2000/svg"
 width="512.000000pt" height="512.000000pt" viewBox="0 0 512.000000 512.000000"
 preserveAspectRatio="xMidYMid meet">

<g transform="translate(0.000000,512.000000) scale(0.100000,-0.100000)"
fill="#000000" stroke="none">
<path d="M1264 4814 c-45 -7 -126 -27 -179 -45 l-98 -31 1589 -1589 c874 -874
1590 -1589 1591 -1589 1 0 38 46 83 102 156 195 278 400 390 653 382 862 334
1699 -125 2160 -227 228 -547 355 -895 355 -211 0 -392 -41 -575 -130 -156
-76 -316 -199 -431 -332 -27 -31 -53 -57 -59 -57 -5 0 -28 23 -50 50 -54 69
-191 189 -291 255 -146 97 -323 167 -500 198 -109 19 -337 19 -450 0z"/>
<path d="M593 4761 c-51 -13 -96 -44 -127 -89 -40 -57 -48 -149 -18 -208 31
-59 3906 -3929 3954 -3949 170 -70 344 111 273 283 -19 45 -3880 3913 -3935
3941 -43 23 -105 32 -147 22z"/>
<path d="M365 4148 c-195 -412 -201 -943 -19 -1509 72 -225 196 -497 316 -698
244 -404 750 -902 1373 -1347 171 -123 273 -192 378 -255 72 -44 86 -49 139
-49 74 0 95 11 323 164 245 165 602 435 750 568 9 8 -3190 3218 -3208 3218 -5
0 -28 -42 -52 -92z"/>
</g>
</svg>
